<svg xmlns="http://www.w3.org/2000/svg" viewBox="0 0 85 118" width="12" height="17"><style>tspan { white-space:pre }</style><path id="ج " fill="#ff0000" aria-label="ج"  d="M46.76 10.76C44.42 10.76 34.34 11.17 30.75 11.17C21.23 11.17 16.4 8 15.3 5.65C13.78 5.52 11.85 6.9 11.85 10.76C11.85 16.69 15.99 25.11 25.1 25.11L38.62 25.11C48.42 25.11 61.25 29.53 61.25 44.29C61.25 54.64 55.04 62.37 51.18 62.37L21.92 62.37C9.5 62.37 4.81 73.14 4.81 86.94C4.81 97.29 8.12 113.71 21.23 113.71C26.89 113.71 29.79 110.53 30.48 108.19C25.92 105.29 19.99 94.94 19.99 77L52.7 77C75.19 77 79.19 53.4 79.19 43.6C79.19 22.35 60.56 10.76 46.76 10.76ZM48.14 83.62C42.48 83.62 37.93 88.04 37.93 93.56C37.93 98.94 42.48 103.5 48.14 103.5C53.52 103.5 58.08 98.94 58.08 93.56C58.08 88.04 53.52 83.62 48.14 83.62Z" /></svg>